<svg
	width="17"
	height="15"
	viewBox="0 0 17 15"
	fill="none"
	xmlns="http://www.w3.org/2000/svg"
>
	<g clip-path="url(#clip0_16401_109016)">
		<path
			d="M14.2764 12.3563L14.2764 6.33897C14.2764 5.12985 13.6788 4.50269 12.5261 4.50269L10.1248 4.50269L10.1248 5.61011L12.4621 5.61011C12.9584 5.61011 13.2305 5.88696 13.2305 6.43502L13.2305 12.2659C13.2305 12.814 12.9584 13.0852 12.4621 13.0852L4.53782 13.0852C4.04156 13.0852 3.76941 12.814 3.76941 12.2659L3.76941 6.43502C3.76941 5.88696 4.04156 5.61011 4.53782 5.61011L6.88042 5.61011L6.88042 4.50269L4.47379 4.50269C3.3265 4.50269 2.72351 5.12985 2.72351 6.33897L2.72351 12.3563C2.72351 13.5655 3.3265 14.1926 4.47379 14.1926L12.5261 14.1926C13.6788 14.1926 14.2764 13.5655 14.2764 12.3563ZM8.98823 8.71767L8.98823 3.02236L8.95087 2.18614L9.28172 2.5986L10.0288 3.44047C10.1142 3.54217 10.2369 3.59867 10.3596 3.59867C10.5998 3.59867 10.8025 3.40656 10.8025 3.14666C10.8025 3.01106 10.7492 2.90935 10.6585 2.8133L8.87083 0.982667C8.74276 0.852714 8.62536 0.807513 8.4973 0.807513C8.36923 0.807513 8.25183 0.852714 8.12376 0.982667L6.33079 2.8133C6.24008 2.90935 6.19205 3.01106 6.19205 3.14666C6.19205 3.40656 6.38415 3.59867 6.62962 3.59867C6.74702 3.59867 6.87509 3.54217 6.96047 3.44047L7.71287 2.5986L8.04372 2.18049L8.00103 3.02236L8.00103 8.71767C8.00103 8.99452 8.22515 9.23183 8.4973 9.23183C8.76944 9.23183 8.98823 8.99452 8.98823 8.71767Z"
			fill="#1C1C1E"
		/>
	</g>
	<defs>
		<clipPath id="clip0_16401_109016">
			<rect width="15" height="17" fill="white" transform="translate(0 15) rotate(-90)"/>
		</clipPath>
	</defs>
</svg>