<svg
	width="17"
	height="15"
	viewBox="0 0 17 15"
	fill="none"
	xmlns="http://www.w3.org/2000/svg"
>
	<path
		d="M2.72352 2.6439V8.66127C2.72352 9.8704 3.32118 10.4976 4.4738 10.4976H6.8751V9.39014H4.53783C4.04157 9.39014 3.76942 9.11328 3.76942 8.56522V2.73431C3.76942 2.18624 4.04157 1.91504 4.53783 1.91504H12.4621C12.9584 1.91504 13.2305 2.18624 13.2305 2.73431V8.56522C13.2305 9.11328 12.9584 9.39014 12.4621 9.39014H10.1195V10.4976H12.5261C13.6734 10.4976 14.2764 9.8704 14.2764 8.66127V2.6439C14.2764 1.43478 13.6734 0.807617 12.5261 0.807617H4.4738C3.32118 0.807617 2.72352 1.43478 2.72352 2.6439ZM8.01171 6.28257V11.9779L8.04906 12.8141L7.71822 12.4016L6.97115 11.5598C6.88577 11.4581 6.76304 11.4016 6.6403 11.4016C6.40017 11.4016 6.1974 11.5937 6.1974 11.8536C6.1974 11.9892 6.25076 12.0909 6.34148 12.1869L8.12911 14.0176C8.25718 14.1475 8.37457 14.1927 8.50264 14.1927C8.63071 14.1927 8.74811 14.1475 8.87618 14.0176L10.6691 12.1869C10.7599 12.0909 10.8079 11.9892 10.8079 11.8536C10.8079 11.5937 10.6158 11.4016 10.3703 11.4016C10.2529 11.4016 10.1249 11.4581 10.0395 11.5598L9.28707 12.4016L8.95622 12.8198L8.99891 11.9779V6.28257C8.99891 6.00572 8.77479 5.76841 8.50264 5.76841C8.2305 5.76841 8.01171 6.00572 8.01171 6.28257Z"
		fill="#1C1C1E"
		strokeWidth="0.5"
	/>
</svg>